<?xml version="1.0" encoding="utf-8"?>
<!-- Generator: Adobe Illustrator 16.0.0, SVG Export Plug-In . SVG Version: 6.00 Build 0)  -->
<!DOCTYPE svg PUBLIC "-//W3C//DTD SVG 1.1//EN" "http://www.w3.org/Graphics/SVG/1.1/DTD/svg11.dtd">
<svg version="1.1" id="The_Last_Book" xmlns="http://www.w3.org/2000/svg" xmlns:xlink="http://www.w3.org/1999/xlink" x="0px"
	 y="0px" width="543.75px" height="123.695px" viewBox="10.018 10.068 543.75 123.695"
	 enable-background="new 10.018 10.068 543.75 123.695" xml:space="preserve">
<g>
	<g>
		<path fill="#231F20" d="M87.113,17.722c0,0.116,0.096,0.403,0.299,0.266c-0.723,0.394-1.403,0.761-2.179,1.034
			c-0.726,0.255-1.062,0.745-1.688,1.096c-0.255,0.145-0.848,0.049-1.147,0.079c-0.338,0.034-0.666,0.382-0.947,0.382
			c-0.886,0-1.743,0.267-2.64,0.267c-1.439,0.285-3.068,0.129-4.53,0.152c-2.125,0.036-4.249,0.045-6.374,0.045
			c-4.019,0-8.052,0.103-12.069-0.024c-0.497-0.017-1.013-0.025-1.502-0.108c-0.432-0.072-0.71-0.152-1.035,0.163
			c-0.406,0.396-0.803,0.801-1.19,1.215c-1.374,1.469-2.75,3.032-3.487,4.931c0.388-1.158-0.438-0.691-0.94-0.104
			c-0.823,0.963-1.281,2.188-1.657,3.383c-0.409,1.302-0.438,2.579-0.605,3.917c-0.178,1.432-0.665,2.755-1.297,4.043
			c-1.261,2.571-2.855,4.963-4.418,7.358c-1.487,2.277-2.57,4.561-3.379,7.152c-0.758,2.431-1.44,5.007-3.106,6.995
			c-1.703,2.033-3.998,3.623-6.383,4.75c-1.213,0.576-2.495,0.977-3.728,1.507c-1.343,0.579-2.669,1.257-4.143,1.416
			c-2.345,0.664-5.494-0.098-7.34-1.627c1.181,0.762,2.457,1.303,3.845,1.531c0.393,0.065,3.76,0.427,3.76-0.104
			c0-0.294-2.683-0.708-2.989-0.765c-0.531-0.023-0.972,0.3-1.494,0.3c-0.375,0-1.073-0.257-1.424-0.42
			c-1.062-0.494-2.111-1.463-2.674-2.493c-0.146-0.268-0.857-1.095-0.563-1.363c0.162-0.148,0.875,0.291,0.875-0.24
			c0.578,0.598,1.029,1.166,1.866,1.41c0.533,0.155,1.119-0.133,1.563,0.089c0.303,0.151,0.594,0.382,0.955,0.262
			c0.226-0.075,0.384-0.138,0.631-0.1h-0.133c4.154,0.071,7.988-2.561,10.814-5.388c3.559-3.561,5.023-8.429,7.08-12.918
			c2.142-4.677,4.126-9.463,5.725-14.354c0.354-1.083,0.687-2.174,0.989-3.272c0.425-1.099,0.942-2.025,1.537-3.033
			c1.266-2.146,3.392-3.331,5.139-5.003c-4.152-0.404-8.11-0.415-12.192,0.538c-3.731,0.872-7.717,2.448-10.493,5.178
			c-1.306,1.284-2.47,2.667-3.827,3.914c-0.661,0.606-1.353,1.238-1.847,1.996c-0.208,0.319-0.361,0.675-0.432,1.051
			c-0.088,0.47-0.418,0.817-0.706,1.199c-1.102,1.461-0.588,2.96,1.106,3.71c0.424,0.188,1.607,0.134,1.887,0.413
			c0.113,0.111,0.28,0.194,0.146,0.37c-0.046,0.06-0.743,0.692-0.179,0.692c-0.399,0-0.797,0.189-1.195,0.133
			c-0.493-0.269-1.07-0.195-1.61-0.266c-1.269-0.164-2.451-0.883-3.192-1.919c-1.551-2.169-1.68-5.437-0.551-7.809
			c1.182-2.482,3.346-4.61,5.221-6.579c1.921-2.018,3.229-4.438,5.796-5.738c2.753-1.396,5.882-1.889,8.931-2.069
			c2.98-0.176,6.012-0.184,8.998-0.236c2.81-0.05,5.629-0.29,8.428,0.065c2.837,0.36,5.659,0.814,8.484,1.251
			c1.753,0.271,3.548,0.713,5.319,0.801c2.298,0.114,4.599,0.115,6.899,0.115c1.945,0,3.956,0.144,5.894-0.051
			c2.021-0.202,4.09,0.276,6.11-0.016c-1.187,0.134-2.375,0.199-3.568,0.199c-0.306,0-2.742-0.147-2.742,0.066
			c0,0.488,2.299,0.898,2.657,0.963c0.573,0,0.846-0.664,1.428-0.664c0.279-0.059,0.578-0.066,0.864-0.066
			c1.098,0,2.208,0.195,3.288-0.101c0.249,0,0.892-0.379,1.063-0.266C87.397,17.024,87.121,17.602,87.113,17.722z M38.561,48.873
			c0-0.25,0.264-0.263,0.398-0.432c-0.177,0.365-0.354,0.729-0.531,1.096C38.575,49.39,38.561,49.052,38.561,48.873z M39.391,14.301
			c-0.307,0-0.381,0.028-0.697-0.133c0.459,0,0.902-0.133,1.362-0.133C39.843,14.177,39.603,14.161,39.391,14.301
			C39.347,14.301,39.523,14.213,39.391,14.301z"/>
		<path fill="#231F20" d="M81.933,57.043c-0.157,0.472-0.133,0.954-0.133,1.442c0,0.37,0.167,0.215-0.184,0.52
			c-0.286,0.248-0.477,0.542-0.717,0.827c-0.921,1.092-2.345,2.052-3.442,2.961c-2.709,2.244-5.588,4.756-9.275,4.839
			c-4.215,0.097-4.432-4.563-3.294-7.505c0.653-1.687,1.366-3.388,2.101-5.04c0.722-1.624,1.761-3.463,1.761-5.285
			c0.089,0.255,0.177,0.51,0.266,0.765c-0.258-0.445-0.219-1.021-0.529-1.434c-0.17-0.228-0.41-0.092-0.564,0.086
			c-0.386,0.448-0.5,0.776-1.089,0.974c-1.893,0.634-3.289,1.991-4.928,3.061c-1.691,1.104-2.942,2.543-4.114,4.169
			c-1.15,1.598-2.468,3.034-3.789,4.489c-1.303,1.436-2.623,2.854-3.917,4.296c-0.314,0.353-0.688,0.959-1.13,1.18
			c-0.738,0.367-1.557-0.892-1.738-1.43c-0.228-0.678-0.002-1.471,0.252-2.106c0.369-0.924,0.684-1.852,1.027-2.783
			c0.719-1.951,0.953-4.02,1.755-5.951c-0.839,0.56-1.509,1.56-2.457,1.927c0.403-0.403,0.92-0.735,1.276-1.129
			c0.357-0.395,0.798-0.741,1.082-1.196c0.17-0.271,0.345-0.197,0.494-0.485c0.136-0.263,0.221-0.529,0.436-0.743
			c-0.941,0.793-1.591,1.857-2.458,2.724c0.177-0.231,0.354-0.465,0.531-0.697c-0.429,0.395-0.912,0.735-1.311,1.161
			c-0.422,0.45-0.529,0.906-1.096,1.229c-0.537,0.306-1.001,0.708-1.528,1.03c-0.318,0.194-0.27,0.374-0.615,0.198
			c-0.235-0.116-0.513-0.216-0.73,0c-0.415-0.232,0.392-1.994,0.531-2.391c0.769-0.769,1.802-1.063,2.593-1.816
			c0.868-0.824,1.759-1.636,2.721-2.352c0.481-0.357,0.963-0.713,1.451-1.061c0.308-0.22,0.616-0.316,0.907-0.55
			c1.077-0.86,1.572-2.465,2.136-3.692c0.685-1.491,1.314-3.007,1.972-4.512c1.244-2.843,2.471-5.728,3.979-8.443
			c1.493-2.688,3.335-5.193,5.3-7.554c1.986-2.387,3.823-4.858,5.625-7.385c0.845-1.185,1.676-2.384,2.617-3.497
			c0.816-0.965,1.844-2.278,2.995-2.862c1.771-0.899,3.977,0.182,3.899,2.268c-0.085,2.305-1.448,4.479-2.484,6.465
			c-1.075,2.061-2.523,3.95-3.847,5.857c-1.287,1.852-2.707,3.638-4.158,5.354c0.044-0.055,0.088-0.109,0.133-0.166
			c-0.635,1.11-1.675,1.945-2.424,3.021c-1.216,1.458-2.307,3.036-3.553,4.483c0.459-1.052,1.438-1.876,2.026-2.855
			c-0.832,1.133-1.499,1.938-2.69,2.723c0.343-0.226,1.036-0.862,0.797-0.132c-0.108,0.333-0.604,0.776-0.83,1.046
			c-0.359,0.429-0.695,0.943-1.134,1.295c-0.309,0.247-0.713,0.388-0.934,0.73c-0.164,0.254-0.222,0.559-0.423,0.791
			c-0.79,0.908-1.579,1.816-2.368,2.726c-0.413,0.476-0.54,0.834-0.779,1.448c-0.452,1.161-0.97,2.296-1.569,3.388
			c2.251-2.36,4.889-4.568,7.887-5.911c2.7-1.209,6.535-1.784,8.638,0.848c1.961,2.454,0.735,5.879-0.431,8.393
			c-0.706,1.521-1.589,2.958-2.294,4.486c-0.543,1.177-1.414,2.686-1.414,4.008c0.71,0,1.374-0.332,2.06-0.332
			c-0.379,0.178-1.305,0.863-1.661,0.863c1.205-0.137,2.259-0.863,3.421-0.996c0,0.308-1.608,0.902-1.893,0.996
			c2.388-0.178,4.258-2.08,6.061-3.42c1.043-0.776,2.199-1.463,3.131-2.376c0.432-0.423,0.797-0.894,1.27-1.277
			C81.539,56.744,82.387,56.228,81.933,57.043C81.844,57.309,82.044,56.843,81.933,57.043z M66.589,32.666
			c-0.989,1.688-2.256,3.214-3.42,4.783c0.373-0.248,0.609-0.086,0.83-0.564c0.39-0.621,0.773-1.247,1.143-1.883
			c0.552-0.947,1.188-2.207,2.017-2.931c0.381-0.333,0.873-0.501,1.209-0.891c0.346-0.401,0.598-0.98,0.829-1.453
			c0.5-1.029,0.951-2.084,1.311-3.172C69.27,28.635,67.97,30.677,66.589,32.666C66.213,33.309,67.342,31.582,66.589,32.666z"/>
		<path fill="#231F20" d="M93.091,62.323c0.25,0.006,0.227-0.188,0.432-0.266c0.364,0,0.706-0.134,1.079-0.134
			c0.656,0,0.147,0.27,0.681-0.266c0.721-0.285,1.447-0.554,2.179-0.809c1.105-0.386,2.131-0.789,3.091-1.476
			c0.762-0.544,1.584-0.794,2.467-1.136c-0.122,0.132-0.314,0.275-0.399,0.432c-0.032,0.061,0.177,0.066,0.091,0.195
			c-0.067,0.101-0.135,0.252-0.224,0.336c0.291,0.007,0.817,0.063,1.025-0.183c0.221-0.26,0.134-0.987,0.248-1.319
			c0.265-0.772,1.142-1.174,1.856-0.727c-0.049-0.031-0.268,1.417-0.19,1.729c0.047,0.192-0.574,0.591-0.748,0.764
			c-0.311,0.312-0.499,0.738-0.723,1.109c-0.339,0.563-1.108,1.681-1.867,1.681c-0.599,0-0.009-1.235-0.897-0.199
			c-0.651,0.761-1.111,1.723-1.793,2.444c-0.565,0.6-1.865,0.565-2.594,0.861c-0.881,0.358-1.678,0.782-2.557,1.153
			c-0.363,0.152-0.61,0.405-1.009,0.223c-0.34-0.15-0.528,0.079-0.823,0.222c-0.671,0.326-1.409,0.277-2.132,0.277
			c-0.804,0-1.657,0.133-2.474,0.133c-0.561,0-0.913-0.458-1.42-0.611c-0.371-0.11-0.846-0.153-1.237-0.153
			c-1.342,0,0.73,0.907,1.039,1.01c2.178,0.728,4.214,0.271,6.367-0.245c-2.508,1.14-5.13,1.413-7.605,0
			c-2.291-1.375-2.571-4.797-3.412-7.068c-0.174-0.47-0.509-0.819-0.614-1.325c-0.136-0.656-0.038-1.364,0.153-1.998
			c0.404-1.339,0.84-2.757,1.369-4.054c0.463-1.135,1.282-2.098,1.939-3.123c0.728-1.229,1.673-2.389,2.807-3.265
			c2.149-1.66,4.933-2.511,7.602-1.832c2.512,0.639,4.967,1.711,4.967,4.699c0,2.579-1.359,5.206-3.408,6.703
			c-1.059,0.772-2.034,1.65-3.11,2.403c-0.65,0.455-1.755,1.457-2.603,0.941c-0.822-0.5-1.531-1.438-1.912-2.31
			c-0.404-0.926,0.759-1.236,1.417-1.586c0.592-0.315,1.588-1.323,1.722-2.01c0.076-0.393-0.052-0.754-0.291-1.064
			c-0.38-0.495-0.62-0.69-1.213-0.443c-2.063,0.859-2.815,3.57-2.963,5.575c-0.077,1.038-0.061,2.217,0.273,3.215
			c0.267,0.404,0.412,0.777,0.797,1.096c0.3,0.201,0.87,0.04,0.963,0.399c0.219-0.227,0.583,0.42,1.08,0.266
			c0.947-0.293,1.903-0.304,2.873-0.53c-0.144,0.088-0.288,0.177-0.432,0.266C93.003,62.323,93.047,62.323,93.091,62.323z
			 M87.246,60.828c-0.172,0.173-0.576,0.685-0.133,0.83C87.251,61.382,87.865,60.828,87.246,60.828
			C87.025,61.05,87.446,60.828,87.246,60.828z M98.139,44.39c-0.082,0.027-0.764,0.295-0.764,0.166c0-0.137-0.245-0.599-0.465-0.599
			C97.328,44.125,97.744,44.159,98.139,44.39C98.006,44.435,97.874,44.235,98.139,44.39z"/>
	</g>
	<g>
		<path fill="#231F20" d="M202.653,122.81c-0.576,0.494-0.362,0.533,0.174,0.781c0.697,0.322-0.826,1.056-0.991,1.164
			c-1.418,0.942-2.402,2.378-3.799,3.368c-3.063,2.17-6.301,3.629-9.943,4.56c-3.563,0.908-7.192,1.293-10.861,0.963
			c-1.324-0.119-3.114-0.243-4.229-1.041c-0.967-0.693,1.489-1.687,2.02-1.687c0-0.332-2.287-0.154-2.577-0.16
			c-1.413-0.022-2.826-0.099-4.205-0.419c-2.871-0.667-5.589-1.842-8.212-3.167c-1.317-0.666-2.617-1.365-3.895-2.104
			c-1.319-0.763-2.574-1.728-3.933-2.404c-2.575-1.284-5.527-1.24-7.551-3.513c-0.898-1.009-1.428-2.263-2.268-3.315
			c-0.887-1.11-2.028-1.984-3.137-2.863c-1.039-0.822-2.157-1.52-3.242-2.274c-1.14-0.794-2.178-1.747-3.332-2.512
			c-2.519-1.669-4.993-3.406-7.433-5.188c-1.194-0.872-2.381-1.755-3.561-2.646c-0.418-0.316-1.073-0.649-1.073-1.258
			c0-0.637,0.205-1.097-0.112-1.733c-0.242-0.481-0.781-0.766-1.221-1.031c-0.43-0.26-0.847-0.632-1.23-0.292
			c-1.143,1.013-2.395,1.878-3.726,2.626c-2.652,1.49-5.579,2.534-8.527,3.262c-2.909,0.72-5.902,1.083-8.899,1.083
			c-1.32,0-2.622-0.191-3.934-0.261c-1.43-0.075-2.796-0.136-4.192-0.501c-2.781-0.728-5.283-2.102-7.193-4.279
			c-1.988-2.266-2.577-5.269-1.987-8.212c0.542-2.706,2.431-4.936,4.426-6.729c2.157-1.94,4.462-3.286,7.411-3.483
			c1.836-0.124,3.694,0.08,5.533,0.088c0.857,0.004,1.721,0.029,2.577-0.039c0.292-0.022,0.817,0.026,1.064-0.171
			c0.286-0.229,0.347-0.348,0.771-0.348c0,0.241-0.448,0.207-0.448,0.447c0.745-0.149,1.043-0.858,1.482-1.398
			c0.603-0.742,1.091-1.278,2.101-1.224c1.348,0.072,2.898,1.254,3.921,2.061c1.282,1.012,2.286,2.315,3.524,3.378
			c0.683,0.586,1.403,1.128,2.154,1.624c0.663,0.438,1.208,0.532,1.919,0.815c0-0.447,0.707-0.91,0.977-1.181
			c0.484-0.483,0.941-0.995,1.356-1.539c0.916-1.2,1.633-2.563,2.253-3.937c1.368-2.827,2.679-5.708,3.931-8.588
			c1.246-2.864,2.105-5.81,2.983-8.799c0.414-1.407,0.877-2.8,1.391-4.174c0.256-0.686,0.525-1.365,0.806-2.04
			c0.141-0.339,0.235-0.616,0.313-0.967c0.096-0.432,0.425-0.514-0.133-0.722c-5.263-1.963-10.315-5.625-12.546-10.955
			c-2.315-5.533-1.125-11.535,2.451-16.216c1.701-2.227,3.807-4.001,6.292-5.294c2.378-1.237,4.933-1.657,7.555-2.013
			c0.607-0.083,1.198-0.158,1.757-0.428c0.638-0.307,0.974-0.729,1.695-0.837c0.611-0.091,1.22-0.078,1.833-0.116
			c0.694-0.045,1.465-0.327,2.148-0.246c1.132,0.134,2.116,1.518,1.3,2.524c-0.1,0.123-0.954,0.808-0.413,0.982
			c0.385,0.129,0.063,0.384-0.17,0.394c-5.291,0.226-10.758,3.067-14.238,7.015c-1.856,2.104-2.684,4.936-2.308,7.738
			c0.157,1.167,0.957,1.913,1.207,2.959c0.327,1.367,1.174,2.622,2.163,3.601c0.959,0.947,2.107,1.683,3.335,2.231
			c0.592,0.266,1.215,0.458,1.853,0.577c0.327,0.062,0.657,0.104,0.989,0.126c0.689,0.049,0.725-0.041,1.108-0.602
			c1.699-2.49,3.178-4.879,4.358-7.661c2.326-5.479,3.793-11.487,8.244-15.743c4.532-4.334,10.591-5.447,16.541-6.59
			c2.931-0.563,5.753-1.399,8.751-1.513c3.122-0.118,6.244,0.181,9.309,0.773c5.254,1.018,10.985,3.016,13.826,7.915
			c3.048,5.255-0.157,11.334-3.68,15.445c-4.35,4.16-8.556,8.878-13.91,11.762c-2.673,1.439-5.579,2.495-8.442,3.487
			c-2.972,1.028-5.986,1.93-9.085,2.485c-4.559,0.817-9.12,0.686-13.726,0.358c-1.36-0.097-2.721-0.185-4.083-0.266
			c-0.732-0.044-1.465-0.086-2.197-0.127c-0.379-0.021-0.758-0.042-1.138-0.063c-0.576-0.031-0.629,0.392-0.888,0.861
			c-0.611,1.105-1.268,2.221-1.711,3.403c-0.559,1.495-0.861,3.044-1.15,4.609c-0.548,2.973-0.896,6.032-1.94,8.885
			c-1.043,2.853-2.737,5.466-4.539,7.894c-1.555,2.679-3.485,5.047-5.208,7.601c-0.365,0.541-0.851,0.98-1.216,1.521
			c-0.299,0.441,0.087,0.441,0.454,0.678c0.317,0.203,0.634,0.407,0.952,0.61c1.085,0.694,2.172,1.366,3.172,2.182
			c0.674,0.549,1.323,1.127,1.96,1.719c0.108,0.101,0.891,0.75,0.808,0.848c-0.17,0.197-0.475,0.326-0.698,0.446
			c0.432,0,0.671-0.266,1.119-0.068c0.592,0.259,1.007,0.791,1.316,1.343c0.666,1.19,0.475,2.53,0.666,3.823
			c0.154,1.041,0.739,2.592,1.961,2.732c0.762,0.09,1.542,0.057,2.309,0.057c0.965,0,1.619,0.094,2.278,0.813
			c0.378,0.413,0.698,0.929,0.698,1.507c0,0.478,0.238,0.871,0.658,1.097c1.217,0.651,2.285,1.855,3.404,2.691
			c1.282,0.958,2.622,1.815,3.973,2.67c2.51,1.587,4.956,3.318,7.238,5.22c2.25,1.875,4.031,4.184,6.204,6.123
			c0.992,0.886,2.078,1.665,3.238,2.314c0.289,0.162,0.583,0.316,0.881,0.462c0.393,0.193,0.37,0.362,0.567,0.736
			c0.328,0.623,0.77,1.203,1.28,1.688c0.863,0.818,2.215,1.05,3.36,0.685c1.203-0.386-0.995-1.304-1.272-1.398
			c3.917,1.327,8.231,1.438,12.298,0.854c2.22-0.318,4.407-0.874,6.512-1.65c0.464-0.171,0.925-0.353,1.381-0.546
			c0-0.334-0.276-0.724-0.503-0.951c-0.172-0.171-0.386-0.286-0.535-0.479c-0.116-0.15-0.732-0.192-1.031-0.192
			c0.323,0,0.559-0.224,0.895-0.224c-0.275-0.276-0.512-0.595-0.671-0.951c1.039-0.39,2.114-0.627,3.188-0.896
			c-0.197,0.491-0.224,0.872-0.224,1.398c0.308-0.358,0.691-0.599,1.04-0.909c0.402-0.358,0.601-0.775,1.078-1.051
			c1-0.579,2.137-0.864,3.196-1.311c1.109-0.466,2.229-1.02,3.252-1.652c0.761-0.472,1.742-1.621,2.675-1.621
			c0,0.255-0.515,0.589-0.668,0.777c-0.276,0.343-0.55,0.708-0.65,1.144C201.54,121.087,201.828,122.101,202.653,122.81
			C202.392,123.033,202.392,122.585,202.653,122.81z M122.898,90.706c0.688,0.979,1.606,1.62,2.501,2.386
			c0.919,0.788,1.508,1.646,2.084,2.703c0.184-0.229,0.3-0.493,0.476-0.727c0.297-0.396-0.056-0.727-0.213-1.184
			c-0.268-0.775-0.697-1.162-1.311-1.695c-0.55-0.479-1.176-0.87-1.806-1.234c-0.421-0.244-0.851-0.475-1.284-0.697
			C123.085,90.258,123.063,90.542,122.898,90.706C123.345,91.341,123.047,90.558,122.898,90.706z M158.86,29.799
			c-2.724,1.843-5.156,4.096-7.218,6.655c-1.065,1.323-2.033,2.724-2.905,4.182c-0.45,0.755-0.875,1.523-1.276,2.305
			c-0.274,0.534-0.962,1.403-0.962,1.96c2.358,0,4.734,0.08,7.09-0.006c2.556-0.094,5.083-0.481,7.598-0.932
			c2.404-0.429,4.708-0.897,6.844-2.139c2.159-1.254,4.062-2.861,5.995-4.429c1.833-1.486,3.8-2.597,5.943-3.573
			c2.171-0.991,4.432-1.867,6.431-3.188c0.898-0.594,1.698-1.311,2.269-2.231c0.243-0.404,0.339-0.788,0.43-1.241
			c0.057-0.282,0.143-0.559,0.241-0.829c-0.155-0.155-0.035-0.371-0.084-0.419c-0.215-0.215-0.614,0.223-0.753,0.361
			c-0.208,0.208-0.984-0.307-1.232-0.391c-1.136-0.47-2.353-0.738-3.561-0.944c-2.888-0.492-5.671-0.397-8.576-0.397
			C169.367,25.009,163.824,26.836,158.86,29.799C153.678,33.304,161.545,28.196,158.86,29.799z M174.465,127.619
			c-1.721,0.265-3.395,0.304-5.096-0.115c-0.778-0.191-1.518-0.507-2.259-0.752c-0.471-0.154-0.186-1.34,0.624-1.083
			c1.648,0.524,3.316,1.037,5.046,1.188c0.902,0.079,1.802,0.072,2.706,0.095c0.952,0.024,1.883,0.219,2.838,0.219
			C177.064,127.485,175.761,127.619,174.465,127.619C173.98,127.694,175.136,127.619,174.465,127.619z M184.084,126.948
			c-1.905,0.303-3.839,0.224-5.761,0.224c2.551-0.538,5.068-1.251,7.606-1.846C185.463,125.992,185.018,126.948,184.084,126.948
			C183.152,127.097,184.532,126.948,184.084,126.948z M187.272,123.48c0.656,0,1.063,0.392,1.622,0.671
			c-0.923,0.538-1.97,0.802-2.964,1.175C186.17,124.726,186.349,123.265,187.272,123.48z"/>
		<path fill="#231F20" d="M216.163,87.07c0,0.622-0.32,1.209-0.379,1.827c-0.038,0.397-0.372,0.602-0.654,0.885
			c-0.553,0.553-1.038,0.956-1.725,1.364c-0.504,0.299-0.997,0.906-1.604,0.832c-0.641-0.08-0.933-0.17-1.26,0.471
			c-0.311,0.609-0.698,1.358-0.698,2.06c0,0.666,1.073-0.431,1.202-0.614c0.207-0.296,0.169-0.565,0.252-0.896
			c0.068-0.271,0.416-0.511,0.615-0.671c-0.279,0.464-0.375,0.882-0.503,1.398c-0.128,0.506-0.93,0.99-1.32,1.275
			c-1.124,0.82-2.534,1.07-3.658,1.912c-1.712,2.253-3.784,4.833-6.678,5.54c-2.832,0.692-5.546,1.532-8.422,0.469
			c-2.779-1.027-4.787-3.562-5.314-6.456c-0.427,0.428-0.671,0.272-0.671,0.944c0,0.569-0.615,0.528-0.615,1.013
			c0-0.37,0.599-0.959,0.112-1.286c-1.082,1.149-2.379,2.021-3.636,2.964c1.621-1.617-1.039-0.926-1.853-0.638
			c-1.551,0.551-3.059,1.228-4.541,1.941c-3.028,1.459-5.878,3.734-9.42,3.342c-3.721-0.412-6.418-2.72-8.019-6.009
			c-1.626-3.342-0.962-7.165,0.23-10.55c-0.245,0-0.914,0.847-1.111,1.024c-0.361,0.325-1.04,1.176-1.518,0.934
			c-0.792-0.787-0.081-2.881,0.046-3.937c0.083-0.688,0.274-0.478,0.763-0.968c0.734-0.734,1.297-1.469,1.835-2.339
			c0.415-0.671,1.098-0.752,1.605-1.33c0.684-0.778,1.264-1.858,2.069-2.501c-0.241,0-0.28,0.266-0.28,0.447
			c0.262-0.263,0.525-0.524,0.787-0.787c0.123-0.123,0.245-0.245,0.368-0.368c0.313-0.313,0.611,0.061,0.915-0.243
			c0.43-0.646,0.456-1.447,1.272-1.813c0.575-0.259,1.138-1.372,1.54-1.882c2.513-3.187,4.997-6.05,8.878-7.536
			c1.948-0.746,4.08-1.068,6.154-1.194c1.993-0.121,4.159-0.121,6.092,0.44c1.969,0.573,3.971,0.935,5.854,1.809
			c0.871,0.404,1.698,0.913,2.418,1.55c0.353,0.313,1.258,1.011,1.237,1.525c0.329-0.563,0.904-2.457,1.743-2.098
			c1.254,0.538,2.392,1.958,3.266,2.964c0.467,0.538,0.918,1.105,1.292,1.714c0.156,0.253,0.301,0.521,0.392,0.805
			c0.106,0.332-0.037,0.455-0.037,0.754c-0.488,1.217-0.444,2.711-0.615,3.999c-0.191,1.431-0.405,3.087-1.29,4.277
			c-0.921,1.237-2.002,2.373-2.963,3.582c-1.843,2.318-3.156,4.923-3.801,7.829c2.641,0,5.365-1.415,7.767-2.415
			c2.209-0.921,4.261-2.146,6.411-3.179c0.231-0.11,0.475-0.211,0.699-0.336c0.141-0.079,0.224,0.126,0.224-0.111
			c0-0.186,0.156-0.112,0.311-0.112c0.646,0,0.829-0.341,1.311-0.728c0-0.121,0.891-0.365,1.05-0.458
			c0.634-0.367,1.176-0.863,1.741-1.326c0.098-0.08,0.489-0.513,0.62-0.508C214.948,85.967,216.163,86.68,216.163,87.07z
			 M192.673,78.793c0.122-0.363,0.254-1.087-0.056-1.397c-0.153-0.153-0.167-0.417-0.167-0.615c-0.104-0.197-0.136,0.23-0.35-0.29
			c-0.193-0.472-0.224-0.955-0.602-1.332c-0.303-0.455-0.876-0.788-1.314-1.091c-1.76-1.219-4.604-0.84-6.538-0.336
			c-5.345,1.392-10.298,4.866-13.409,9.427c-1.618,2.372-2.845,5.224-3.17,8.087c-0.037,0.326-0.299,2.481,0.27,2.481
			c0.177,0.028,0.071-0.153,0.224-0.237c0.552-0.304,1.273-0.253,1.869-0.427c1.292-0.376,2.254-1.354,3.505-1.833
			c1.47-0.563,3.07-0.826,4.602-1.168c1.432-0.32,2.911-0.614,4.257-1.215c1.344-0.601,2.289-1.113,3.776-0.658
			c0.285-2.041,0.811-4.462,2.261-6.019C189.21,80.693,191.377,80.394,192.673,78.793C192.748,78.569,192.039,79.576,192.673,78.793
			z M196.308,71.019c-0.138-0.172-0.406-0.56-0.671-0.56c-0.005,0.654,0.095,1.318,0.224,1.958
			C196.069,72.104,196.75,71.26,196.308,71.019z M205.033,92.328c0.716,0.021,1.31-0.177,1.846-0.671
			C206.232,91.333,205.221,91.578,205.033,92.328z"/>
		<path fill="#231F20" d="M248.323,86.399c-0.282,0.563-0.175,1.885-0.112,2.517c0,0.518,0.212,0.523-0.286,0.809
			c-0.243,0.139-0.487,0.267-0.721,0.422c-0.28,0.239-0.605,0.33-0.895,0.535c-0.319,0.227-0.49,0.627-0.752,0.91
			c-1.346,1.455-2.775,2.834-4.273,4.132c-0.541,0.468-1.092,0.931-1.678,1.342c-0.677,0.475-1.188,1.121-1.85,1.628
			c-3.015,2.309-6.417,4.032-10.193,4.66c-1.051,0.175-2.81,0.048-3.738,0.664c-0.748-0.083,0.125-0.458,0.422-0.563
			c0.367-0.128,1.455-0.283,1.424-0.836c-2.732,0.504-5.891-0.07-8.502-0.895c1.267,0.159,2.521,0.446,3.803,0.446
			c0.818,0.013,1.607-0.224,2.405-0.224c0.191-0.348-2.137-0.626-2.433-0.671c-0.539-0.081-1.08-0.151-1.623-0.192
			c-0.449-0.034-1.024,0.069-1.383-0.268c-0.73-0.686-0.818-1.851-1.356-2.658c-0.507-0.761-1.463-1.051-1.989-1.875
			c-0.161-0.252-0.304-0.902,0.091-1.07c0.351-0.149,0.724,0.137,1.084,0.057c0.384-0.085,0.162-0.493,0.482-0.613
			c0.521-0.195,0.614,0.026,0.682,0.386c0.147,0.777,1.85,0.863,2.419,0.863c1.219,0,2.208-0.312,3.301-0.811
			c1.747-0.798,3.522-1.528,5.255-2.364c0.891-0.431,1.893-0.979,2.542-1.739c0.813-0.952,1.406-2.078,2.011-3.167
			c0.308-0.553,0.534-1.035,0.708-1.642c0.107-0.373,0.389-0.797,0.389-1.185c0-0.662-1.063-1.067-1.063-1.846
			c-1.602,1.082-3.389,1.71-5.173,2.349c-2.083,0.749-4.259,1.711-6.446,2.094c-1.687,0.296-3.371,1.387-4.937,2.102
			c1.182-0.796,2.403-1.509,3.412-2.517c-0.708,0.135-1.34,0.225-1.969,0.606c-0.483,0.294-0.401,0.523-0.66,0.945
			c-0.233,0.379-0.793,0.519-1.162,0.741c-0.459,0.276-1.018,0.28-1.438-0.141c-0.298-0.298-0.041-0.881,0.028-1.222
			c0.117-0.578,0.216-1.159,0.342-1.734c0.154-0.702,0.176-0.715,0.773-1.014c0.312-0.156,0.584-0.356,0.934-0.423
			c0.528-0.103,1.113,0.03,1.58-0.303c0.465-0.332,0.825-0.937,1.217-1.356c0.443-0.475,0.904-0.938,1.403-1.354
			c0.871-0.725,1.916-1.188,2.755-1.963c0.754-0.964,1.305-2.01,1.949-3.041c0.545-0.873,1.214-2.099,2.023-2.707
			c0.608-0.457,0.573-0.79,0.681-1.521c0.108-0.737,0.269-1.468,0.508-2.174c0.743-2.194,2.537-4.682,4.725-5.588
			c2.096-0.869,4.996,0.281,6.601,1.74c0.947,0.861,0.988,1.979,1.642,2.979c0.334,0.511,0.927,0.625,1.252,1.127
			c0.339,0.521,0.193,1.231-0.051,1.762c-0.444,0.96-1.303,1.772-1.935,2.614c0.679-0.019,1.76,1.87,2.151,2.385
			c0.701,0.925,1.234,1.917,1.632,3.009c0.988,2.712,1.154,5.347,0.355,8.141c0.401-0.334,0.927-0.534,1.293-0.854
			c0.503-0.439,0.421-1.092,0.631-1.667c0.162-0.44,0.307-0.521,0.705-0.388C247.592,85.876,248.323,86.043,248.323,86.399
			C248.249,86.548,248.323,86.251,248.323,86.399z"/>
		<path fill="#231F20" d="M322.373,56.03c0.44,0,0.75,0.623,0.245,0.825c-0.236,0.094-0.594,0.09-0.717,0.362
			c-0.127,0.281,0.18,0.657,0.472,0.657c-4.554,0-9.073,0.543-13.626,0.737c-5.555,0.236-11.102-0.108-16.648,0.063
			c-2.646,0.082-5.294,0.142-7.939,0.227c-1.493,0.048-2.985,0.106-4.478,0.167c-0.732,0.029-1.464,0.059-2.197,0.089
			c-0.356,0.015-0.712,0.03-1.068,0.044c-0.566,0.024-0.598,0.596-0.804,1.081c-2.505,5.886-5.043,11.772-7.844,17.524
			c-1.206,2.475-2.42,4.847-3.495,7.364c-0.649,1.522-1.25,3.064-1.812,4.621c-0.284,0.786-0.547,1.578-0.749,2.391
			c-0.102,0.411-0.189,0.826-0.257,1.245c-0.057,0.354-0.268,0.597-0.268,0.97c0.221,0,0.452-0.021,0.671,0
			c0.563,0,0.541,0.083,0.541,0.521c0,0.291,1.308-0.125,1.529-0.148c0.196-0.021,1.756-0.046,0.895,0.298
			c0.892,0.021,1.884-0.462,2.693-0.793c1.371-0.562,2.792-1.19,4-2.06c0.991-0.713,1.81-1.559,2.856-2.225
			c1.254-0.799,2.458-1.699,3.667-2.564c0.78-0.558,1.508-1.507,2.388-1.866c0.354,0,0.944-0.345,1.09,0.203
			c0.134,0.499-0.15,1.164-0.291,1.633c-0.165,0.545-0.371,1.077-0.566,1.61c-0.111,0.304-0.222,0.606-0.332,0.909
			c-0.145,0.397-0.34,0.465-0.597,0.777c-0.75,0.911-1.458,1.658-2.368,2.421c-4.289,3.598-8.43,7.833-13.919,9.465
			c-2.517,0.748-5.583,1.042-7.836-0.598c-1.998-1.453-3.041-4.567-2.76-6.963c0.205-1.738,0.774-3.491,1.168-5.196
			c0.38-1.643,0.774-3.277,1.466-4.822c-1.072,0.43-2.145,1.188-3.062,1.879c-0.75,0.567-1.501,1.134-2.251,1.7
			c0.599-0.713,1.188-1.411,1.846-2.069c-0.562,0-1.66,0.525-1.96,0.988c-0.275,0.424,0.138,1.203-0.467,1.428
			c-0.682,0.255-1.311,0.66-2.047,0.66c-0.449,0-1.258,0.075-0.853-0.522c0.514-0.757,0.414-1.814,0.308-2.665
			c-0.108-0.866,0.334-0.854,0.881-1.398c0.349-0.348,0.794-0.578,1.165-0.9c0.442-0.386,0.789-0.873,1.218-1.276
			c0.837-0.787,1.684-1.132,2.738-1.517c1.755-0.642,2.949-2.506,4.176-3.843c0.781-0.851,1.508-1.751,2.185-2.688
			c0.116-0.161,0.421-0.514,0.655-0.514c0.194-0.456,0.388-0.912,0.582-1.367c1.913-4.501,3.778-9.023,5.85-13.454
			c-2.948,0.537-5.836-0.037-8.782-0.107c-3.069-0.074-6.147,0.467-9.209,0.628c-2.845,0.149-5.615,0.989-8.464,0.989
			c-1.087,0-2.276-0.207-3.076-1.007c-1.163-1.279-0.114-2.327,1.063-3.076c0.481-0.305,1.217-0.607,1.545-1.09
			c0.209-0.309,0.057-0.615,0.15-0.938c0.238-0.833,2.185-0.545,2.79-0.508c1.329,0.082,2.644,0.301,3.974,0.375
			c1.264,0.071,2.499-0.074,3.759-0.14c6.176-0.32,12.364-0.351,18.543-0.607c0.37-0.77,0.82-1.368,1.309-2.044
			c0.679-0.94,1.067-2.157,1.489-3.227c0.968-2.451,1.733-4.936,2.846-7.33c1.117-2.405,2.192-4.846,3.5-7.154
			c0.943-1.666,2.555-4.869,4.696-5.171c2.283-0.322,2.795,2.973,3.197,4.529c0.619,2.39,0.097,4.213-1.014,6.408
			c-1.139,2.254-2.4,4.356-3.329,6.712c-0.941,2.386-2.124,4.671-3.076,7.054c2.407,0.405,4.954,0.224,7.385,0.224
			c2.08,0,4.156,0.144,6.236,0.213c5.394,0.182,10.793,0.353,16.188,0.458c-0.364,0.086-3.021,0.339-3.021,0.728
			c3.373,0,6.748,0,10.123,0c-2.686,0.224-5.369,0.448-8.055,0.671c1.286,0.173,2.561,0.378,3.857,0.427
			c0.652,0.025,1.304,0.021,1.955,0.021c0.549,0,0.97-0.178,1.49-0.26C317.081,55.813,319.789,56.03,322.373,56.03z"/>
	</g>
	<g>
		<path fill="#231F20" d="M389.992,67.271c1.655,5.026,2.186,10.729,0.475,15.813c-0.786,2.341-2.144,4.425-3.887,6.167
			c-0.544,0.979-1.604,1.499-2.563,1.978c-0.914,0.456-1.746,1.009-2.598,1.566c-2.159,1.417-3.656,3.6-5.529,5.345
			c-0.899,0.84-1.847,1.663-2.983,2.166c-0.997,0.44-2.078,0.607-3.076,1.063c-2.454,1.121-4.78,2.552-7.358,3.395
			c-0.979,0.318-2.177,0.597-3.156,0.134c-0.436-0.205-2.058-2.404-2.545-1.44c-0.231-0.23-0.307-0.556-0.521-0.79
			c-0.243-0.263-0.484-0.079-0.484-0.497c0-0.387,0.119-0.714,0.195-1.09c0.063-0.304-0.072-0.564-0.084-0.867
			c0.865,0,1.9-0.069,2.709-0.373c0.413-0.154,0.786-0.405,1.059-0.756c0.256-0.327,0.262-0.999,0.793-1.041
			c0.424-0.033,0.705,0.103,1-0.314c0.306-0.432,0.904-0.501,1.311-0.9c0.902-0.892,1.458-2.174,2.535-2.893
			c0.887-0.593,2.269-0.438,3.279-0.831c1.11-0.434,2.062-1.17,2.926-1.979c2.01-1.883,3.227-4.434,5.203-6.33
			c1.74-1.67,4.156-2.563,5.761-4.359c1.748-1.96,1.879-4.703,1.392-7.188c-0.521-2.646-2.117-5.037-3.509-7.302
			c-0.543-0.884-1.438-1.743-2.237-2.4c-0.712-0.586-1.64-0.966-2.309-1.589c0,0.075,0,0.149,0,0.225
			c-0.266-0.201-0.291-0.504-0.489-0.756c-0.293-0.371-0.873-0.363-1.301-0.363c-1.255,0-2.431-0.447-3.69-0.447
			c0.477-0.762,1.621-0.224,2.293-0.224c-0.515-0.341-1.063-0.064-1.584-0.305c-0.234-0.107-0.492-0.652-0.709-0.87
			c0,0.414,0.522,0.193,0.422,0.752c-0.078,0.434-0.209,0.423-0.564,0.423c-0.604,0-1.184,0.089-1.703-0.167
			c-0.227-0.111-0.6-0.683-0.811-0.294c-0.258,0.472,0.027,0.461-0.582,0.461c-0.396,0-0.777,0.513-1.073,0.756
			c-0.585,0.48-1.179,0.951-1.783,1.405c-1.897,1.431-4.022,2.77-6.504,2.64c-1.078-0.058-2.039-0.614-3.121-0.313
			c-0.636,0.178-0.909-0.153-1.376-0.542c-0.27-0.224-1.057-0.597-0.97-0.981c-0.959,0.702-0.81-1.902-0.591-2.318
			c0.582-1.105,1.672-2.186,2.668-2.925c0.897-0.667,2.029-1.3,3.181-1.3c1.403,0,0.033,1.481,1.118,1.242
			c1.183-0.263,2.254-0.914,3.347-1.406c0.291-0.13,0.853-0.231,1.074-0.453c0.503-0.502,0.894-1.144,1.295-1.729
			c0.787-1.148,1.465-2.332,2.511-3.275c1.02-0.919,2.036-1.75,2.862-2.862c3.282-4.419,3.799-10.819,1.96-15.911
			c-0.921-2.552-2.518-4.907-4.563-6.695c-0.479-0.422-0.99-0.81-1.521-1.164c-0.274-0.185-0.556-0.359-0.84-0.526
			c-0.409-0.24-0.481-0.462-0.82-0.053c-1.015,1.225-1.983,2.486-2.907,3.78c-1.062,1.483-2.047,3.026-2.847,4.667
			c0.187-0.325,0.62-1.051,0.42-1.453c-0.125-0.25-0.8,0.275-0.896,0.348c-1.094,0.833-1.963,1.946-2.711,3.089
			c-1.625,2.487-3.021,5.395-3.021,8.419c-0.188,6.023-3.199,11.47-6.32,16.471c-3.259,5.222-6.896,10.295-9.102,16.08
			c-1.026,2.694-1.868,5.418-2.762,8.162c-0.893,2.746-1.959,5.565-3.684,7.905c-2.055,2.788-4.451,5.252-6.949,7.639
			c-2.381,2.273-5.03,4.371-7.22,6.822c-1.151,1.29-2.153,2.704-3.321,3.979c-1.174,1.281-2.527,2.395-3.883,3.479
			c-2.597,2.081-5.324,3.889-8.494,4.965c2.922-1.328,5.592-2.981,8.09-4.995c0.671-0.54,1.328-1.095,1.978-1.661
			c0.349-0.278,0.882-0.953,0.071-0.71c-1.387,0.417-2.705,1.212-3.985,1.875c-0.581,0.302-0.95,0.606-1.187,1.24
			c-0.231,0.619-0.396,1.292-1.107,1.511c-1.201,0.873-2.664,1.381-4.064,1.827c-0.771,0.246-1.549,0.473-2.338,0.655
			c-0.797,0.184-1.619,0.184-2.406,0.371c-0.414,0.098-1.481,0.374-1.481-0.335c0-0.436,0.56-0.61,0.56-1.063
			c0.021-0.081-0.336-0.248-0.336-0.336c1.304-0.313,2.588-0.83,3.742-1.512c0.418-0.247,0.838-0.533,1.146-0.916
			c0.333-0.417,0.399-0.973,0.682-1.423c0.302-0.479,1.06-0.739,1.534-1.017c0.459-0.268,0.615-0.838,0.988-1.087
			c0.777-0.519,1.256-1.219,2.004-1.877c4.215-3.708,7.461-8.267,10.847-12.726c1.552-2.042,2.95-4.155,4.359-6.295
			c1.69-2.567,3.395-5.111,4.794-7.854c2.914-5.708,5.197-11.739,7.938-17.533c3.293-7.7,6.582-15.437,9.368-23.336
			c1.293-3.669,2.169-7.451,4.282-10.76c2.164-3.385,5.376-6.07,8.329-8.747c-5.027,0-9.937,0.889-14.843,1.897
			c-4.117,0.846-7.976,2.213-11.725,4.087c0.074,0,0.149,0,0.225,0c-0.321,0.214-0.547,0.358-0.896,0.447
			c-0.935,0-1.665,0.801-2.289,1.399c-1.465,1.405-3.239,2.686-4.813,4.082c0.205-0.411,0.445-0.742,0.722-1.109
			c0.207-0.276,0.429-0.309,0.719-0.504c0.429-0.29,0.716-0.764,1.077-1.126c-1.104,0.66-2.013,2.293-3.412,2.293
			c0.128,0,1.23-0.437,1.23-0.112c-0.24,0.232-0.381,0.56-0.561,0.839c-0.427,0.711-1.092,1.407-1.789,1.86
			c-0.447,0.29-0.781,0.373-0.896,0.937c-0.123,0.617-0.265,0.905-0.609,1.449c-0.614,0.966-1.167,1.972-1.659,3.006
			c-1.008,2.11-1.752,4.407-1.563,6.776c0.088,1.1,0.497,2.009,0.872,3.023c0.354,0.954,0.717,2.008,1.283,2.859
			c-0.205-0.204-0.444-0.305-0.672-0.477c-0.34-0.255-0.174-0.347-0.125-0.705c0.104-0.784-0.989-0.816-1.115-1.476
			c-0.305-1.591-0.828-3.028-0.828-4.67c-0.169,0.168-1.18,1.733-0.447,1.733c0.063-0.129,0.184-0.254,0.225-0.392
			c-0.578,2.004,0.357,4.217,2.068,5.313c-0.417,0.066-0.691-0.211-0.951-0.503c0.297,0.666,0.776,1.418,1.454,1.746
			c0.585,0.282,1.37,0.091,2.015,0.322c0.314,0.126,1.244,0.193,1.343,0.336c0,0.374,0.2,0.413-0.168,0.783
			c-0.097,0.098-0.536,0.951-0.058,0.951c-0.977,0-1.979-0.224-2.935-0.443c-1.349-0.309-2.483-0.798-3.485-1.78
			c-1.037-1.021-1.709-2.202-2.129-3.582c-0.169-0.557-0.377-1.227-0.263-1.814c0.185-0.948,0.668,0.182,0.926,0.182
			c0.009-1.994-0.188-3.894,0.22-5.875c0.211-1.027,0.432-2.146,0.787-3.13c0.426-1.172,1.102-1.956,1.813-2.952
			c0.737-1.031,1.366-2.138,2.104-3.171c0.692-0.973,0.938-2.327,1.538-3.39c0.296-0.521,0.625-1.021,0.978-1.505
			c0.261-0.259,0.699,0,1.007,0c0.501,0,0.598-0.483,0.864-0.809c0.479-0.583,0.963-1.164,1.447-1.741
			c0.713-0.847,1.489-1.608,2.387-2.26c0.847-0.847,2.017-0.434,3.027-0.849c0.424-0.174,0.768-0.628,1.11-0.926
			c0.47-0.408,0.948-0.805,1.426-1.206c0.42-0.354,0.84-0.707,1.237-1.086c0.031-0.03,0.889-0.856,0.525-0.856
			c-0.882,0-2.086,0.932-2.838,1.343c-1.031,0.565-2.043,1.173-3.01,1.846c-1.95,1.355-3.775,2.915-5.563,4.475
			c3.731-4.25,8.961-7.887,14.558-9.053c1.267-0.264,2.532-0.514,3.731-1.014c1.222-0.647,2.573-0.728,3.933-0.728
			c1.075,0,2.149,0,3.228,0c2.553,0,5.104-0.185,7.656-0.214c1.557-0.018,3.112-0.011,4.667,0.063
			c0.763,0.035,1.522,0.086,2.284,0.147c0.645,0.053,1.681,0.372,2.299,0.225c1.256-0.302,2.559-0.476,3.682-1.136
			c1.282-0.755,2.483-1.668,3.656-2.58c1.152-0.896,2.262-1.974,3.528-2.703c0.411-0.235,1.035-0.089,0.89,0.494
			c-0.115,0.461-0.396,1.013,0.364,0.896c-0.66,0.396-0.722,1.026-1.119,1.622c-0.784,0.313-1.347,0.91-1.733,1.649
			c-0.391,0.749-0.818,1.493-1.332,2.165c-0.265,0.348-0.551,0.678-0.85,0.995c0,0.163-0.109,0.339-0.224,0.447
			c2.539,1.168,4.973,2.702,6.743,4.896c0.766,0.948,1.687,1.847,2.205,2.963c0.674,1.451,1.146,2.997,1.402,4.576
			c0.452,2.794,0.436,5.729,0.243,8.544c-0.194,2.869-0.649,5.841-1.756,8.511c-1.045,2.521-2.72,4.746-4.649,6.647
			c-0.258,0.254-0.438,1,0.174,1c0.67-0.214,1.363-0.361,2.065-0.42c0.702-0.058,2.336-0.18,2.897,0.42
			c0.357,0.383,0.34,0.969,0.714,1.342c0.312,0.313,0.803,0.224,1.203,0.244c1.247,0.066,2.598,0.366,3.844,0.175
			c0.522-0.079-0.313-0.576-0.435-0.643c-0.613-0.366-1.241-0.708-1.889-1.013c-1.207-0.57-2.435-0.916-3.742-1.162
			c-1.156-0.218-2.318-0.403-3.484-0.566c1.957,0,4.091,0.047,5.98,0.599c1.946,0.566,3.768,1.794,5.155,3.259
			c0.679,0.715,1.181,1.558,1.787,2.33c0.542,0.689,1.245,1.172,1.798,1.83c0.563,0.667,0.707,1.444,0.809,2.284
			C389.426,65.286,389.655,66.296,389.992,67.271C390.999,70.329,389.619,66.19,389.992,67.271z M339.151,71.858
			c0-0.673,0.266-0.546,0.672-0.951c-0.299,0.69-0.598,1.379-0.896,2.069C339.103,72.632,339.151,72.238,339.151,71.858z
			 M380.372,36.79c-0.15-0.227-0.398-0.438-0.436-0.721c-0.052-0.41,0.436-0.505,0.436-0.901
			C380.372,35.708,380.372,36.25,380.372,36.79z M381.994,94.509c-0.224,0.225-0.447,0.447-0.671,0.672
			c0-0.173-0.254-0.672,0.05-0.672C381.58,94.509,381.787,94.509,381.994,94.509z"/>
		<path fill="#231F20" d="M436.973,88.413c0,0.418-0.593,0.548-0.504,0.951c2.483-0.429,4.536-2.203,6.603-3.52
			c0.463-0.295,0.958-0.039,1.304,0.369c0.136,0.161-0.186,1.182-0.186,1.431c0,0.551,0.065,1.026,0.261,1.546
			c0.142,0.379-0.837,0.936-1.146,1.164c-1.763,1.306-3.826,2.38-5.769,3.403c-1.06,0.56-2.408,0.364-3.507,0.85
			c-0.391,0.172-0.612,0.461-1.038,0.461c-0.276,0-0.552,0-0.828,0c0.079-0.067,0.14-0.163,0.224-0.225
			c-0.883,0.393-1.508,1.206-2.234,1.838c-1.097,0.95-2.256,1.827-3.471,2.623c-2.369,1.553-4.951,2.827-7.664,3.656
			c-2.799,0.856-6.185,1.643-9.114,1.056c-2.848-0.322-5.593-1.649-7.765-3.495c-2.13-1.811-3.708-4.204-4.184-6.981
			c-0.17-0.991-0.188-1.978-0.188-2.978c0-0.475-0.396-0.555-0.854-0.587c-0.794-0.058-1.171-0.071-1.649-0.806
			c-0.746-1.145,0.239-2.021-0.068-3.177c-0.098-0.369-0.303-0.214,0.082-0.557c0.205-0.183,0.426-0.355,0.674-0.477
			c0.338-0.166,1.002,0.018,1.123-0.432c0.128-0.479,0.816-0.898,1.175-1.271c0.499-0.521,0.945-1.089,1.461-1.594
			c0.469-0.459,1.067-0.801,1.472-1.31c0.52-0.654,1.055-1.295,1.607-1.92c1.917-2.167,4.12-4.473,6.615-5.979
			c1.327-0.802,2.878-1.1,4.416-1.1c1.161,0,2.363,0.106,2.901,1.286c0.46,1.008,0.483,2.69-0.62,3.311
			c-1.138,0.639-1.883,1.39-2.654,2.465c-1.778,2.471-3.55,5.558-3.767,8.654c0.13-0.387,0.198-1.721-0.548-1.158
			c-0.666,0.503-1.006,1.538-1.298,2.277c-0.537,1.523-0.521,4.454,1.395,5.086c0.801,0.264,1.488-0.1,2.252-0.33
			c1.094-0.33,2.211-0.576,3.334-0.776c2.224-0.396,4.307-1.139,6.332-2.135c-1.839-2.066-2.595-4.489-3.031-7.178
			c-0.23-1.42-0.292-2.871-0.262-4.309c0.024-1.095-0.008-2.426,0.446-3.446c1.033-2.323,3.06-4.336,4.642-6.307
			c0.781-0.973,1.453-1.958,2.56-2.593c1.177-0.676,2.555-1.196,3.837-1.632c5.434-1.848,10.271,2.402,11.322,7.572
			c0.566,2.789,0.152,5.532-0.542,8.255C439.398,83.206,438.471,85.917,436.973,88.413C436.973,88.6,437.867,86.922,436.973,88.413z
			 M432.163,77.898c0.433-0.863,0.021-2.43-0.261-3.283c-0.107-0.325-0.081-0.692-0.475-0.556c-0.26,0.091-0.517,0.192-0.77,0.302
			c-0.588,0.253-1.187,0.522-1.726,0.871c-2.214,1.43-3.504,4.056-3.818,6.613c-0.151,1.228,0,2.408,0.692,3.449
			c0.189,0.284,0.393,0.561,0.606,0.825c0.279,0.345,0.299,0.625,0.692,0.284c0.511-0.441,0.991-0.914,1.44-1.417
			C430.354,82.969,431.571,80.535,432.163,77.898C432.237,77.75,431.753,79.725,432.163,77.898z M429.869,81.589
			c0,0.387-0.348,0.671-0.728,0.671c0.365-0.547,0.434-1.256,0.728-1.846C429.869,80.807,429.869,81.198,429.869,81.589z"/>
		<path fill="#231F20" d="M485.296,88.413c0,0.418-0.592,0.548-0.503,0.951c2.481-0.43,4.535-2.203,6.6-3.52
			c0.464-0.295,0.958-0.039,1.305,0.369c0.136,0.162-0.187,1.182-0.187,1.431c0,0.551,0.066,1.027,0.263,1.546
			c0.142,0.378-0.838,0.936-1.146,1.164c-1.762,1.305-3.825,2.381-5.768,3.403c-1.06,0.559-2.407,0.364-3.507,0.85
			c-0.391,0.172-0.612,0.461-1.038,0.461c-0.276,0-0.553,0-0.828,0c0.078-0.067,0.14-0.163,0.224-0.225
			c-0.883,0.394-1.507,1.206-2.234,1.838c-1.097,0.95-2.256,1.827-3.471,2.623c-2.37,1.553-4.951,2.827-7.664,3.656
			c-2.799,0.856-6.184,1.643-9.114,1.056c-2.847-0.322-5.593-1.648-7.765-3.495c-2.13-1.811-3.706-4.205-4.183-6.981
			c-0.17-0.991-0.189-1.978-0.189-2.978c0-0.475-0.396-0.555-0.854-0.587c-0.795-0.058-1.173-0.07-1.65-0.806
			c-0.746-1.146,0.24-2.021-0.067-3.177c-0.099-0.369-0.304-0.214,0.081-0.557c0.205-0.183,0.426-0.355,0.674-0.477
			c0.338-0.166,1.002,0.018,1.123-0.432c0.129-0.479,0.816-0.898,1.176-1.271c0.498-0.521,0.943-1.089,1.46-1.594
			c0.469-0.459,1.066-0.801,1.472-1.31c0.519-0.654,1.055-1.295,1.607-1.92c1.916-2.167,4.119-4.473,6.614-5.979
			c1.327-0.802,2.879-1.1,4.417-1.1c1.163,0,2.363,0.107,2.901,1.286c0.461,1.007,0.483,2.691-0.619,3.311
			c-1.138,0.638-1.883,1.391-2.656,2.465c-1.776,2.469-3.552,5.559-3.765,8.654c0.128-0.386,0.198-1.721-0.548-1.158
			c-0.666,0.503-1.006,1.538-1.298,2.277c-0.537,1.524-0.523,4.453,1.395,5.086c0.799,0.264,1.488-0.1,2.251-0.33
			c1.093-0.33,2.21-0.576,3.333-0.776c2.225-0.396,4.307-1.138,6.333-2.135c-1.839-2.068-2.593-4.487-3.031-7.178
			c-0.23-1.419-0.293-2.872-0.262-4.309c0.024-1.095-0.008-2.427,0.446-3.446c1.035-2.323,3.059-4.335,4.642-6.307
			c0.781-0.973,1.454-1.958,2.561-2.593c1.177-0.676,2.554-1.196,3.837-1.632c5.435-1.848,10.265,2.402,11.319,7.572
			c0.569,2.788,0.154,5.532-0.54,8.255C487.722,83.206,486.795,85.918,485.296,88.413C485.296,88.6,486.191,86.922,485.296,88.413z
			 M480.486,77.898c0.434-0.864,0.021-2.429-0.261-3.283c-0.106-0.325-0.081-0.692-0.474-0.556c-0.26,0.091-0.517,0.192-0.77,0.302
			c-0.589,0.253-1.188,0.521-1.727,0.871c-2.213,1.43-3.503,4.056-3.818,6.613c-0.151,1.228,0,2.408,0.692,3.449
			c0.189,0.284,0.392,0.561,0.606,0.825c0.278,0.346,0.299,0.625,0.692,0.284c0.511-0.441,0.991-0.914,1.44-1.417
			C478.676,82.969,479.895,80.535,480.486,77.898C480.561,77.75,480.076,79.725,480.486,77.898z M478.193,81.589
			c0,0.387-0.35,0.671-0.729,0.671c0.366-0.548,0.434-1.256,0.729-1.846C478.193,80.807,478.193,81.198,478.193,81.589z"/>
		<path fill="#231F20" d="M550.789,10.559c1.046,0.38,2.008,1.048,2.461,2.098c0.572,1.326,0.6,2.292,0.42,3.674
			c-0.158,1.22-0.407,2.452-0.896,3.588c-0.544,1.266-1.362,2.417-1.974,3.654c-2.331,4.728-5.747,8.624-8.78,12.888
			c-6.857,9.641-13.896,19.146-21.266,28.406c-0.102,0.114-0.865,0.827-0.622,0.308c0.34-0.724,0.799-1.402,1.216-2.083
			c0.533-0.87,1.08-1.731,1.62-2.598c0.324-0.519,1.143-1.41,1.143-2.059c-1.03,1.3-2.183,2.505-3.186,3.823
			c-0.302,0.397-0.51,0.77-0.73,1.21c-0.307,0.613-0.575,0.831-1.1,1.305c-0.641,0.579-1.177,1.256-1.753,1.896
			c-0.473,0.525-0.958,0.712-1.436,1.252c-1.38,1.563-2.604,3.254-3.822,4.943c2.631-2.75,5.243-5.477,7.551-8.501
			c-1.166,2.172-2.315,4.354-3.451,6.542c-0.569,1.1-1.138,2.2-1.702,3.302c-0.277,0.541-0.555,1.081-0.83,1.622
			c0,0.449-0.206,0.813-0.447,1.175c2.118-2.119,4.286-4.291,6.717-6.039c2.446-1.759,4.817-3.13,7.626-4.229
			c1.312-0.513,2.679-0.893,4.077-1.062c1.564-0.188,2.937-0.045,4.477,0.231c1.249,0.224,2.176,0.586,3.039,1.56
			c0.947,1.067,1.806,2.362,2.12,3.771c0.574,2.56-0.765,5.499-2.041,7.662c-1.385,2.347-3.578,4.075-5.726,5.693
			c-1.088,0.82-2.193,1.648-3.421,2.249c-1.309,0.641-2.753,0.894-4.062,1.476c-0.375,0.167-1.16,0.022-1.106,0.611
			c0.051,0.563,0.238,1.128,0.476,1.638c0.552,1.191,1.479,2.277,2.554,3.023c0.753,0.522,1.7,1.034,2.641,1.034
			c0.374,0,0.861-0.06,1.192,0.149c0.246,0.155,0.021,0.518,0.006,0.746c1.175-0.15,2.315-0.499,3.385-1.006
			c0.087-0.042,1.648-0.693,1.648-0.672c0,0.244-0.934,0.688-1.09,0.783c-0.529,0.325-1.07,0.665-1.65,0.896
			c0.855,0,2.014-0.713,2.77-1.063c1.323-0.609,2.577-1.42,3.674-2.38c0.985-0.863,1.941-1.068,3.146-1.528
			c1.424-0.543,2.646-1.424,3.644-2.573c0.42-0.484,0.779-1.014,1.219-1.48c0.441-0.471,0.783-0.659,1.321-0.93
			c0.277-0.123,1.396-0.519,1.396,0.111c0.031,0.247-0.386,0.721-0.472,0.927c-0.229,0.542-0.222,1.157-0.182,1.733
			c0.036,0.511,0.354,0.938-0.1,1.213c-1.03,0.626-1.97,1.396-2.938,2.111c-2.119,1.701-4.354,3.245-6.427,5.004
			c-2.193,1.861-4.472,3.688-7.061,4.974c-2.325,1.154-5.304,2.475-7.941,1.722c-2.493-0.71-4.868-2.149-6.313-4.326
			c-1.686-2.538-2.404-5.375-2.749-8.367c-0.148-1.289-0.239-2.599-0.134-3.896c0.074-0.907,0.077-2.776,0.87-3.388
			c-2.164,1.605-4.393,3.078-6.165,5.135c-1.882,2.182-3.478,4.696-4.98,7.149c-1.309,2.136-2.907,4.128-3.894,6.439
			c-0.495,1.161-0.979,2.346-1.758,3.352c-0.752,0.97-2.106-0.407-2.203-1.263c-0.188-1.652,0.301-3.151,0.624-4.761
			c0.513-2.557,1.096-5.063,1.868-7.553c0.897-2.89,1.861-5.76,2.924-8.594c0.467-1.245,0.946-2.486,1.46-3.713
			c0.203-0.486,0.098-0.615,0.396-1.015c0.287-0.384,0.709-0.815,0.709-1.33c-1.905,1.559-3.646,3.321-5.391,5.056
			c-1.626,1.616-3.439,3.075-5.189,4.559c-0.931,0.788-1.878,1.56-2.843,2.307c-0.602,0.466-1.656,1.11-2.462,1.11
			c-0.645,0,0.795-1.529,0.853-1.693c0.146-0.424,0.479-2.617-0.068-2.894c1.998-1.712,4.385-2.934,6.333-4.704
			c0.858-0.781,1.877-1.385,2.806-2.077c1.204-0.897,2.375-1.84,3.519-2.813c1.103-0.938,2.19-1.896,3.213-2.922
			c0.512-0.514,1.008-1.042,1.489-1.584c0.557-0.625,0.865-1.333,1.25-2.072c1.426-2.745,3.087-5.355,4.521-8.097
			c2.942-5.624,4.94-11.651,7.848-17.281c2.896-5.61,6.738-10.653,9.913-16.106c2.366-4.063,4.223-8.442,7.176-12.135
			c1.375-1.72,2.981-3.487,4.959-4.521C546.568,10.381,548.743,9.596,550.789,10.559C552.02,11.007,550.155,10.26,550.789,10.559z
			 M498.552,102.395c0.208-0.208,0.238-0.463,0.447-0.671C498.999,102.044,498.765,102.182,498.552,102.395z M519.637,64.363
			c0-0.267,0.408-0.671,0.671-0.671C520.084,63.916,519.86,64.14,519.637,64.363z M523.271,79.296
			c-0.487,0.488-1.077,0.854-1.565,1.343c0.798,0.061,1.803-0.419,2.545-0.672c0.967-0.329,1.871-0.824,2.713-1.397
			c1.775-1.129,3.368-2.587,4.586-4.307C528.347,74.263,525.598,77.452,523.271,79.296C523.049,79.52,524.354,78.439,523.271,79.296
			z M548.049,16.711c0.136-0.12,0.21-0.269,0.225-0.446c-0.714,0.713-1.443,1.396-2.083,2.18c-0.995,1.22-1.741,2.616-2.712,3.844
			c-1.87,2.37-3.87,4.646-5.688,7.055c-3.909,5.19-6.47,11.235-9.485,16.954c0.882-0.799,1.599-1.958,2.305-2.915
			c0.916-1.242,1.841-2.479,2.78-3.704c1.903-2.479,3.916-4.878,5.737-7.419c1.676-2.338,3.134-4.791,4.677-7.214
			C545.511,22.368,547.111,19.773,548.049,16.711C548.198,16.563,547.341,19.024,548.049,16.711z"/>
	</g>
</g>
</svg>
